<svg xmlns="http://www.w3.org/2000/svg" width="40" height="72" viewBox="0 0 40 72" shape-rendering="crispEdges"><g><path fill="#091110" d="M7 66h10v5H5v-3zm15 0h10l3 2v3H22z"/><path fill="#303b38" d="M9 49h8v18H9zm13 0h9v18h-9z"/><path fill="#246f69" d="M7 28h26v22H7z"/><path fill="#d79b42" d="M9 31h22v5H9z"/><path fill="#54c9b8" d="M10 37h5v10h-5z"/><path fill="#d29a72" d="M11 16h18v14H11z"/><path fill="#9a6730" d="M8 12h24v6H8z"/><path fill="#efc252" d="M11 7h18v8H11z"/><path fill="#ffe174" d="M16 4h9v5h-9z"/><path fill="#15201e" d="M14 21h3v3h-3zm9 0h3v3h-3z"/><path fill="#d29a72" d="M29 32h6v7h-6z"/><path stroke="#865e43" stroke-width="3" d="M31 38l6 14"/><path fill="#cfd8d4" d="M29 34h10v4H29z"/><path fill="#9ea9a4" d="M35 31h4v9h-4z"/></g></svg>