<svg xmlns="http://www.w3.org/2000/svg" width="40" height="72" viewBox="0 0 40 72" shape-rendering="crispEdges"><g><path fill="#091110" d="M8 66h10v5H6v-3zm14 0h10l3 2v3H22z"/><path fill="#2b3c39" d="M9 49h9v18H9zm13 0h9v18h-9z"/><path fill="#167f7d" d="M7 28h26v22H7z"/><path fill="#46c6bd" d="M9 31h5v15H9z"/><path fill="#0e5a58" d="M26 31h5v15h-5z"/><path fill="#d29a72" d="M11 16h18v14H11z"/><path fill="#9a6730" d="M8 12h24v6H8z"/><path fill="#f0c454" d="M11 7h18v8H11z"/><path fill="#ffe277" d="M16 4h9v5h-9z"/><path fill="#15201e" d="M14 21h3v3h-3zm9 0h3v3h-3z"/><path fill="#d8e1dc" d="M31 33l3-3 3 3-3 3z"/><path stroke="#866047" stroke-width="3" d="M33 35l5 14"/></g></svg>